HIERARCHY
ROOT Hips
{
    OFFSET 0.000000 0.000000 0.000000
    CHANNELS 6 Xposition Yposition Zposition Zrotation Xrotation Yrotation
    JOINT Chest
    {
        OFFSET -0.000000 0.078597 0.000000
        CHANNELS 3 Zrotation Xrotation Yrotation
        JOINT Chest2
        {
            OFFSET -0.000000 0.230468 0.000000
            CHANNELS 3 Zrotation Xrotation Yrotation
            JOINT Neck
            {
                OFFSET -0.000000 0.249638 0.000000
                CHANNELS 3 Zrotation Xrotation Yrotation
                JOINT Head
                {
                    OFFSET -0.000000 0.103998 0.019170
                    CHANNELS 3 Zrotation Xrotation Yrotation
                    End Site
                    {
                        OFFSET -0.000000 0.191701 0.000000
                    }
                }
            }
            JOINT LeftCollar
            {
                OFFSET 0.038274 0.205938 -0.001496
                CHANNELS 3 Zrotation Xrotation Yrotation
                JOINT LeftShoulder
                {
                    OFFSET 0.132388 0.000000 0.000000
                    CHANNELS 3 Zrotation Xrotation Yrotation
                    JOINT LeftElbow
                    {
                        OFFSET 0.250301 0.000000 0.000000
                        CHANNELS 3 Zrotation Xrotation Yrotation
                        JOINT LeftWrist
                        {
                            OFFSET 0.285291 0.000000 0.000000
                            CHANNELS 3 Zrotation Xrotation Yrotation
                            End Site
                            {
                                OFFSET 0.000000 -0.143776 0.000000
                            }
                        }
                    }
                }
            }
            JOINT RightCollar
            {
                OFFSET -0.038406 0.205938 -0.001496
                CHANNELS 3 Zrotation Xrotation Yrotation
                JOINT RightShoulder
                {
                    OFFSET -0.132388 0.000000 0.000000
                    CHANNELS 3 Zrotation Xrotation Yrotation
                    JOINT RightElbow
                    {
                        OFFSET -0.250301 0.000000 0.000000
                        CHANNELS 3 Zrotation Xrotation Yrotation
                        JOINT RightWrist
                        {
                            OFFSET -0.285291 0.000000 0.000000
                            CHANNELS 3 Zrotation Xrotation Yrotation
                            End Site
                            {
                                OFFSET -0.000000 -0.143776 0.000000
                            }
                        }
                    }
                }
            }
        }
    }
    JOINT LeftHip
    {
        OFFSET 0.095851 0.000000 0.000000
        CHANNELS 3 Zrotation Xrotation Yrotation
        JOINT LeftKnee
        {
            OFFSET -0.000000 -0.406444 0.000000
            CHANNELS 3 Zrotation Xrotation Yrotation
            JOINT LeftAnkle
            {
                OFFSET -0.000000 -0.408443 0.000000
                CHANNELS 3 Zrotation Xrotation Yrotation
                JOINT LeftToe
                {
                    OFFSET -0.000000 -0.062303 0.143776
                    CHANNELS 3 Zrotation Xrotation Yrotation
                    End Site
                    {
                        OFFSET -0.000000 0.000000 0.038340
                    }
                }
            }
        }
    }
    JOINT RightHip
    {
        OFFSET -0.095851 0.000000 0.000000
        CHANNELS 3 Zrotation Xrotation Yrotation
        JOINT RightKnee
        {
            OFFSET -0.000000 -0.406444 0.000000
            CHANNELS 3 Zrotation Xrotation Yrotation
            JOINT RightAnkle
            {
                OFFSET -0.000000 -0.408443 0.000000
                CHANNELS 3 Zrotation Xrotation Yrotation
                JOINT RightToe
                {
                    OFFSET -0.000000 -0.062303 0.143776
                    CHANNELS 3 Zrotation Xrotation Yrotation
                    End Site
                    {
                        OFFSET -0.000000 0.000000 0.038340
                    }
                }
            }
        }
    }
}
MOTION
Frames:    7
Frame Time:    0.016667
-0.011162    0.878156    0.106276    2.340200    5.157493    -175.786438    0.426926    -0.001460    -1.081684    -7.152549    4.568155    -0.074204    2.612375    13.294497    -6.794920    -3.248008    8.040410    -5.726481    7.617309    1.503860    -10.827286    -46.154556    47.039829    -32.106586    -4.184767    2.938544    -16.520418    100.965103    -7.737386    -1.587604    -3.061614    -10.494747    12.369011    39.780308    7.118851    7.564081    23.325018    -39.055283    116.299850    -76.346626    -7.916714    -62.193428    10.544645    5.763782    2.391977    -5.002862    14.744284    11.727120    -5.922197    -17.584431    11.318230    0.000000    0.000000    0.000000    -2.596033    5.976944    2.700842    2.605522    6.057267    2.302112    2.102915    -13.048161    -13.448355    0.000000    0.000000    0.000000    
-0.011162    0.878156    0.106276    2.340200    5.157493    -175.786438    0.426926    -0.001460    -1.081684    -7.152549    4.568155    -0.074204    2.612375    13.294497    -6.794920    -3.248008    8.040410    -5.726481    7.617309    1.503860    -10.827286    -46.154556    47.039829    -32.106586    -4.184767    2.938544    -16.520418    100.965103    -7.737386    -1.587604    -3.061614    -10.494747    12.369011    39.780308    7.118851    7.564081    23.325018    -39.055283    116.299850    -76.346626    -7.916714    -62.193428    10.544645    5.763782    2.391977    -5.002862    14.744284    11.727120    -5.922197    -17.584431    11.318230    0.000000    0.000000    0.000000    -2.596033    5.976944    2.700842    2.605522    6.057267    2.302112    2.102915    -13.048161    -13.448355    0.000000    0.000000    0.000000    
-0.011162    0.878156    0.106276    2.340200    5.157493    -175.786438    0.426926    -0.001460    -1.081684    -7.152549    4.568155    -0.074204    2.612375    13.294497    -6.794920    -3.248008    8.040410    -5.726481    7.617309    1.503860    -10.827286    -46.154556    47.039829    -32.106586    -4.184767    2.938544    -16.520418    100.965103    -7.737386    -1.587604    -3.061614    -10.494747    12.369011    39.780308    7.118851    7.564081    23.325018    -39.055283    116.299850    -76.346626    -7.916714    -62.193428    10.544645    5.763782    2.391977    -5.002862    14.744284    11.727120    -5.922197    -17.584431    11.318230    0.000000    0.000000    0.000000    -2.596033    5.976944    2.700842    2.605522    6.057267    2.302112    2.102915    -13.048161    -13.448355    0.000000    0.000000    0.000000    
-0.009606    0.880332    0.102350    2.153772    5.014279    -173.073074    1.185113    -0.387726    -1.239223    -9.395014    3.381240    -0.136471    2.451346    15.160709    -5.025314    -5.177040    7.536802    -3.539299    7.996394    2.097902    -10.555928    -46.272270    46.613647    -31.890968    -4.378751    3.511932    -17.059660    99.733253    -7.517973    -2.214834    -4.999190    -10.135483    9.440802    26.252569    0.834592    6.679212    19.003216    -46.814953    112.361542    -79.353462    -8.648213    -62.467777    10.468829    5.991847    2.455747    -3.879992    13.181237    9.400169    -6.359117    -16.451269    10.992773    0.000000    0.000000    0.000000    -1.932585    7.931617    1.398475    1.832833    3.224926    1.551810    2.433789    -11.561858    -14.112394    0.000000    0.000000    0.000000    
-0.009606    0.880332    0.102350    2.153772    5.014279    -173.073074    1.185113    -0.387726    -1.239223    -9.395014    3.381240    -0.136471    2.451346    15.160709    -5.025314    -5.177040    7.536802    -3.539299    7.996394    2.097902    -10.555928    -46.272270    46.613647    -31.890968    -4.378751    3.511932    -17.059660    99.733253    -7.517973    -2.214834    -4.999190    -10.135483    9.440802    26.252569    0.834592    6.679212    19.003216    -46.814953    112.361542    -79.353462    -8.648213    -62.467777    10.468829    5.991847    2.455747    -3.879992    13.181237    9.400169    -6.359117    -16.451269    10.992773    0.000000    0.000000    0.000000    -1.932585    7.931617    1.398475    1.832833    3.224926    1.551810    2.433789    -11.561858    -14.112394    0.000000    0.000000    0.000000    
-0.009606    0.880332    0.102350    2.153772    5.014279    -173.073074    1.185113    -0.387726    -1.239223    -9.395014    3.381240    -0.136471    2.451346    15.160709    -5.025314    -5.177040    7.536802    -3.539299    7.996394    2.097902    -10.555928    -46.272270    46.613647    -31.890968    -4.378751    3.511932    -17.059660    99.733253    -7.517973    -2.214834    -4.999190    -10.135483    9.440802    26.252569    0.834592    6.679212    19.003216    -46.814953    112.361542    -79.353462    -8.648213    -62.467777    10.468829    5.991847    2.455747    -3.879992    13.181237    9.400169    -6.359117    -16.451269    10.992773    0.000000    0.000000    0.000000    -1.932585    7.931617    1.398475    1.832833    3.224926    1.551810    2.433789    -11.561858    -14.112394    0.000000    0.000000    0.000000    
-0.009606    0.880332    0.102350    2.153772    5.014279    -173.073074    1.185113    -0.387726    -1.239223    -9.395014    3.381240    -0.136471    2.451346    15.160709    -5.025314    -5.177040    7.536802    -3.539299    7.996394    2.097902    -10.555928    -46.272270    46.613647    -31.890968    -4.378751    3.511932    -17.059660    99.733253    -7.517973    -2.214834    -4.999190    -10.135483    9.440802    26.252569    0.834592    6.679212    19.003216    -46.814953    112.361542    -79.353462    -8.648213    -62.467777    10.468829    5.991847    2.455747    -3.879992    13.181237    9.400169    -6.359117    -16.451269    10.992773    0.000000    0.000000    0.000000    -1.932585    7.931617    1.398475    1.832833    3.224926    1.551810    2.433789    -11.561858    -14.112394    0.000000    0.000000    0.000000    
